<?xml version="1.0" standalone="no"?>
<!DOCTYPE svg PUBLIC "-//W3C//DTD SVG 20010904//EN"
 "http://www.w3.org/TR/2001/REC-SVG-20010904/DTD/svg10.dtd">
<svg version="1.0" xmlns="http://www.w3.org/2000/svg"
 width="240.000000pt" height="240.000000pt" viewBox="0 0 240.000000 240.000000"
 preserveAspectRatio="xMidYMid meet">
<metadata>
Created by potrace 1.14, written by Peter Selinger 2001-2017
</metadata>
<g transform="translate(0.000000,240.000000) scale(0.100000,-0.100000)"
fill="#000000" stroke="none">
<path d="M40 1205 l0 -785 215 0 215 0 0 75 0 75 -130 0 -130 0 0 636 0 635
128 -2 127 -1 0 73 0 74 -212 3 -213 2 0 -785z"/>
<path d="M1932 1914 l3 -76 125 -1 125 -2 3 -633 2 -632 -130 0 -130 0 0 -75
0 -75 215 0 215 0 -2 783 -3 782 -213 3 -213 2 3 -76z"/>
<path d="M546 1493 c24 -93 81 -310 127 -483 l84 -315 120 -3 120 -3 82 333
c44 183 89 371 99 418 l18 85 7 -45 c4 -25 49 -213 99 -417 l92 -373 121 0
120 0 128 478 c70 262 127 481 127 485 0 4 -41 6 -92 5 l-92 -3 -68 -270 c-37
-148 -80 -330 -96 -404 l-28 -134 -12 59 c-7 32 -52 215 -100 406 l-87 348
-120 0 -120 0 -68 -293 c-38 -160 -81 -344 -96 -407 l-28 -115 -12 60 c-7 33
-51 216 -98 408 l-85 347 -93 0 -93 0 44 -167z"/>
</g>
</svg>
